<svg id="Layer_1" data-name="Layer 1" xmlns="http://www.w3.org/2000/svg" viewBox="0 0 360 360"><defs><style>.cls-1{fill:#fff;}</style></defs><title>icon3</title><path class="cls-1" d="M310.55,470.44c1.73.22,3.89.59,6.07.74a3.32,3.32,0,0,0,2.3-.69q30.36-30.15,60.64-60.39,8.12-8.09,16.22-16.18a2.6,2.6,0,0,0,.91-2.65c-3.57-19.87,10.32-37.16,30.19-38.78,3.4-.27,6.94.45,10.34,1.11,3.56.69,4.18,3.45,1.54,6.09-3.6,3.61-7.29,7.14-10.9,10.74-1.55,1.54-3.81,3-4.27,4.82s1.25,4,1.63,6c.55,2.94,2.23,4.37,5.06,4.95,2.07.42,4.26,2,6,1.62s3.14-2.71,4.64-4.21c3.68-3.65,7.33-7.32,11-11,2.58-2.56,5.16-1.83,6.08,1.72a32.59,32.59,0,0,1-27.49,40.8c-3.29.39-6.68-.24-10-.25a4.12,4.12,0,0,0-2.69.87q-36.1,36-72.1,72c-1.42,1.42-2.78,2.9-4.29,4.22a3.15,3.15,0,0,0-1.09,3.37c2,10.27-.51,19.42-7.59,27.06-7.57,8.17-17.11,11.47-28.09,9.53-15.61-2.75-26.06-15.8-25.74-31.65.29-14.77,12.34-27.91,27.09-29.56,1.35-.15,2.7-.22,4.53-.36M451.92,382.2l-.49-.21c-3.84,3.84-7.71,7.64-11.5,11.53a3.73,3.73,0,0,1-4.36,1c-3.95-1.4-8-2.57-11.9-4.09A5.27,5.27,0,0,1,421,387.8c-1.52-3.9-2.73-7.93-4.08-11.9a3.89,3.89,0,0,1,1.11-4.39c3.37-3.3,6.7-6.66,10-10,.48-.48.92-1,1.74-1.92-1.18,0-1.86,0-2.54,0-19.08.58-28.21,18.66-24.57,32.17a5.18,5.18,0,0,1-1.56,5.68c-10.91,10.77-21.72,21.64-32.57,32.48q-23.4,23.38-46.79,46.79a4.33,4.33,0,0,1-4.37,1.2,34.52,34.52,0,0,0-8.95-1,24.54,24.54,0,0,0-22.87,28.85c2,12.68,14.55,22,27.12,20.45,15.47-1.87,25.68-17.15,21-31.86a3.72,3.72,0,0,1,.94-4.2q40.2-40.08,80.3-80.25a3.79,3.79,0,0,1,4-1.17c10.8,2.7,20-.23,27.31-8.45,4.55-5.1,6-11.38,5.7-18.06"/><path class="cls-1" d="M188.9,225.94a37,37,0,1,1,26.18-10.85,36.84,36.84,0,0,1-26.18,10.85m0-68.07a31,31,0,1,0,31,31,31.07,31.07,0,0,0-31-31"/><path class="cls-1" d="M188.9,201.89a13,13,0,1,1,13-13,13,13,0,0,1-13,13m0-20a7,7,0,1,0,7,7,7,7,0,0,0-7-7"/><path class="cls-1" d="M144,188.9A44.92,44.92,0,0,1,188.9,144v-6A50.84,50.84,0,0,0,138,188.9Z"/><path class="cls-1" d="M108.14,188.9a80.84,80.84,0,0,1,80.75-80.76v-6a86.69,86.69,0,0,0-86.76,86.77Z"/><path class="cls-1" d="M155.12,109a86.69,86.69,0,0,0-53,80H144A44.92,44.92,0,0,1,188.9,144v-41.9A86.14,86.14,0,0,0,155.12,109m27.69,29.43A49.71,49.71,0,0,0,169.09,142a50.83,50.83,0,0,0-30.72,40.79h-30a80.87,80.87,0,0,1,74.44-74.44Z"/><path class="cls-1" d="M188.5,170.4a3.51,3.51,0,1,1,3.51-3.51,3.51,3.51,0,0,1-3.51,3.51m0-5.4a1.89,1.89,0,1,0,1.89,1.89A1.89,1.89,0,0,0,188.5,165"/><path class="cls-1" d="M188.5,214.42a3.51,3.51,0,1,1,3.51-3.51,3.51,3.51,0,0,1-3.51,3.51m0-5.4a1.89,1.89,0,1,0,1.89,1.89A1.89,1.89,0,0,0,188.5,209"/><path class="cls-1" d="M207.39,188.9a3.52,3.52,0,1,1,3.52,3.51,3.52,3.52,0,0,1-3.52-3.51m5.4,0a1.89,1.89,0,1,0-1.88,1.88,1.89,1.89,0,0,0,1.88-1.88"/><path class="cls-1" d="M163.37,188.9a3.52,3.52,0,1,1,3.52,3.51,3.52,3.52,0,0,1-3.52-3.51m5.4,0a1.89,1.89,0,1,0-1.88,1.88,1.89,1.89,0,0,0,1.88-1.88"/><path class="cls-1" d="M201.7,175.54a3.51,3.51,0,1,1,5,0,3.52,3.52,0,0,1-5,0m3.81-3.82a1.88,1.88,0,1,0,0,2.67,1.87,1.87,0,0,0,0-2.67"/><path class="cls-1" d="M170.57,206.67a3.51,3.51,0,1,1,5,0,3.52,3.52,0,0,1-5,0m3.82-3.82a1.89,1.89,0,1,0,0,2.67,1.88,1.88,0,0,0,0-2.67"/><path class="cls-1" d="M202,202a3.51,3.51,0,1,1,0,5,3.51,3.51,0,0,1,0-5m3.81,3.82a1.88,1.88,0,1,0-2.66,0,1.88,1.88,0,0,0,2.66,0"/><path class="cls-1" d="M170.85,170.85a3.51,3.51,0,1,1,0,5,3.52,3.52,0,0,1,0-5m3.82,3.82a1.89,1.89,0,1,0-2.67,0,1.9,1.9,0,0,0,2.67,0"/><path class="cls-1" d="M129.42,160.81l-.56-.23a2.71,2.71,0,0,0-3.51,1.45,0,0,0,0,0,0,0,68.62,68.62,0,0,0-3.1,9,2.72,2.72,0,0,0,1.6,3.22l.56.22a2.71,2.71,0,0,0,3.64-1.8,61.82,61.82,0,0,1,2.86-8.32,2.72,2.72,0,0,0-1.48-3.58"/><path class="cls-1" d="M148.4,136.43h0a3,3,0,0,0-4.08-.18q-2.16,1.84-4.2,3.88c-.77.76-1.51,1.55-2.24,2.35a3,3,0,0,0,4.46,4.06,64.24,64.24,0,0,1,5.88-5.67,3,3,0,0,0,.18-4.44"/><path class="cls-1" d="M174.93,124.81l-.41-1.19a2.39,2.39,0,0,0-2.84-1.54,69.51,69.51,0,0,0-9.63,3.26h0a2.38,2.38,0,0,0-1.32,3l.41,1.19a2.39,2.39,0,0,0,3.19,1.42,63.22,63.22,0,0,1,8.95-3,2.39,2.39,0,0,0,1.67-3.09"/><path class="cls-1" d="M252.45,162.05a68.9,68.9,0,0,0-63.55-42.13c-2,0-4.08.09-6.09.27v6q3-.28,6.09-.29a63,63,0,1,1-63,63q0-3.08.29-6.09h-6q-.25,3-.26,6.09a69,69,0,1,0,132.53-26.85"/></svg>