<svg id="Layer_1" data-name="Layer 1" xmlns="http://www.w3.org/2000/svg" viewBox="0 0 360 360"><defs><style>.cls-1{fill:#fff;}</style></defs><title>icon5</title><path class="cls-1" d="M310.55,470.44c1.73.22,3.89.59,6.07.74a3.32,3.32,0,0,0,2.3-.69q30.36-30.15,60.64-60.39,8.12-8.09,16.22-16.18a2.6,2.6,0,0,0,.91-2.65c-3.57-19.87,10.32-37.16,30.19-38.78,3.4-.27,6.94.45,10.34,1.11,3.56.69,4.18,3.45,1.54,6.09-3.6,3.61-7.29,7.14-10.9,10.74-1.55,1.54-3.81,3-4.27,4.82s1.25,4,1.63,6c.55,2.94,2.23,4.37,5.06,4.95,2.07.42,4.26,2,6,1.62s3.14-2.71,4.64-4.21c3.68-3.65,7.33-7.32,11-11,2.58-2.56,5.16-1.83,6.08,1.72a32.59,32.59,0,0,1-27.49,40.8c-3.29.39-6.68-.24-10-.25a4.12,4.12,0,0,0-2.69.87q-36.1,36-72.1,72c-1.42,1.42-2.78,2.9-4.29,4.22a3.15,3.15,0,0,0-1.09,3.37c2,10.27-.51,19.42-7.59,27.06-7.57,8.17-17.11,11.47-28.09,9.53-15.61-2.75-26.06-15.8-25.74-31.65.29-14.77,12.34-27.91,27.09-29.56,1.35-.15,2.7-.22,4.53-.36M451.92,382.2l-.49-.21c-3.84,3.84-7.71,7.64-11.5,11.53a3.73,3.73,0,0,1-4.36,1c-3.95-1.4-8-2.57-11.9-4.09A5.27,5.27,0,0,1,421,387.8c-1.52-3.9-2.73-7.93-4.08-11.9a3.89,3.89,0,0,1,1.11-4.39c3.37-3.3,6.7-6.66,10-10,.48-.48.92-1,1.74-1.92-1.18,0-1.86,0-2.54,0-19.08.58-28.21,18.66-24.57,32.17a5.18,5.18,0,0,1-1.56,5.68c-10.91,10.77-21.72,21.64-32.57,32.48q-23.4,23.38-46.79,46.79a4.33,4.33,0,0,1-4.37,1.2,34.52,34.52,0,0,0-8.95-1,24.54,24.54,0,0,0-22.87,28.85c2,12.68,14.55,22,27.12,20.45,15.47-1.87,25.68-17.15,21-31.86a3.72,3.72,0,0,1,.94-4.2q40.2-40.08,80.3-80.25a3.79,3.79,0,0,1,4-1.17c10.8,2.7,20-.23,27.31-8.45,4.55-5.1,6-11.38,5.7-18.06"/><path class="cls-1" d="M91.61,166.57c1-1.91,2.52-2.56,4.65-2.5,4.15.13,8.29,0,12.44,0,2.93,0,4.23,1.63,4.17,4.6-.11,5.45,0,10.9,0,16.46h7.06c0-3,.1-6.07,0-9.1-.19-4.64,2-8,5.72-10.31a13.72,13.72,0,0,1,5.33-1.6,38.7,38.7,0,0,1,6.55,0,3.6,3.6,0,0,0,3.24-1.44c4.41-5.24,9-10.35,13.37-15.59a11.42,11.42,0,0,1,9.36-4.28c4.84.05,9.67,0,14.5,0h2V132.37c-.6,0-1.21-.08-1.82-.08-3.73,0-7.47,0-11.21,0-3.31,0-4.52-1.19-4.52-4.43,0-4.26,0-8.52,0-12.77,0-2.7,1.33-4,4-4q24.26,0,48.5,0c2.63,0,4.15,1.63,4.12,4.25,0,4.2-.05,8.4-.09,12.6,0,3.09-1.32,4.39-4.42,4.4-3.74,0-7.48,0-11.22,0h-2v10.54h31.41a10.54,10.54,0,0,1,10.91,10.84c0,7.48,0,15,0,22.44v2h3.53v-1.92c0-3.91,0-7.82,0-11.74,0-2.54,1.31-3.86,3.82-3.88,4.49-.06,9-.05,13.47,0,2.62,0,3.91,1.36,3.91,4q0,27.78,0,55.58c0,2.77-1.34,4.09-4.16,4.1h-13c-2.78,0-4.09-1.33-4.11-4.16,0-3.8,0-7.59,0-11.39v-2h-3.53c0,1.78,0,3.5,0,5.2a11,11,0,0,1-3.39,8.21q-12.42,12.58-24.79,25.25a11.64,11.64,0,0,1-8.79,3.65q-21.66,0-43.32,0a11.33,11.33,0,0,1-9.21-4.23c-4.48-5.32-9.09-10.54-13.6-15.84a3,3,0,0,0-2.64-1.22c-2.3.08-4.6,0-6.9,0a11.57,11.57,0,0,1-11.08-11c0-3.32,0-6.64,0-10.05h-7.09v1.91q0,7.34,0,14.67c0,3.32-1.16,4.49-4.43,4.49-4,0-8.06-.09-12.08,0a4.58,4.58,0,0,1-4.68-2.47Zm162.63,1.12c0,4.68,0,9.16,0,13.65q0,3.9-3.94,3.93c-3,0-6.1,0-9.15,0-3.46,0-4.57-1.1-4.57-4.51v-27.1c0-3.12-.59-3.7-3.74-3.7-22.9,0-45.81,0-68.71-.05a6.14,6.14,0,0,0-5.26,2.47c-4.68,5.61-9.54,11.07-14.26,16.64a5.28,5.28,0,0,1-4.61,2.14c-2.93-.13-5.87,0-8.8,0s-4.22,1.21-4.23,4.18q0,20.63,0,41.26c0,2.88,1.22,4,4.14,4.07s6.11.06,9.15,0a5.09,5.09,0,0,1,4.3,2c5,6,10.19,11.87,15.29,17.81a3.6,3.6,0,0,0,3,1.38c14.8,0,29.58,0,44.37-.08a4.4,4.4,0,0,0,2.84-1.18q12.73-12.78,25.28-25.74a5.08,5.08,0,0,0,1.22-3c.16-2.81,0-5.63.06-8.45,0-2.59,1.35-3.95,3.92-4,3.22,0,6.45,0,9.67,0,2.76,0,4.06,1.36,4.07,4.19,0,3.92,0,7.83,0,11.74v1.6h6.88V167.69Zm-148.48,53V203.86c0-3.25,1.21-4.44,4.51-4.45h9.53v-7h-9.52c-3.28,0-4.52-1.23-4.52-4.45V171.23H98.67v47.35c0,.34-.12.76,0,1,.23.41.62,1,1,1,2,.1,3.9,0,6.09,0m63.7-95.5h2c3.9,0,7.81,0,11.72,0a3.83,3.83,0,0,1,4.05,4.14c-.06,3.61-.09,7.24-.13,10.85,0,.84,0,1.68,0,2.56h7.08V141c0-3.91,0-7.81,0-11.73,0-2.68,1.34-4,4-4.06,3.91,0,7.82,0,11.73,0h1.78v-6.91H169.46Z"/><path class="cls-1" d="M187.06,192.38h17.67l-27.6,38-.3-.15c3.37-10.15,6.75-20.31,10.21-30.71H169.5c.3-.72.47-1.19.69-1.63q8.09-16.18,16.15-32.37a2.08,2.08,0,0,1,2.2-1.39c5.27.07,10.55,0,16.18,0-5.92,9.49-11.69,18.71-17.66,28.27"/></svg>