<svg id="Layer_1" data-name="Layer 1" xmlns="http://www.w3.org/2000/svg" viewBox="0 0 360 360"><defs><style>.cls-1{fill:#fff;}</style></defs><title>icon4</title><path class="cls-1" d="M310.55,470.44c1.73.22,3.89.59,6.07.74a3.32,3.32,0,0,0,2.3-.69q30.36-30.15,60.64-60.39,8.12-8.09,16.22-16.18a2.6,2.6,0,0,0,.91-2.65c-3.57-19.87,10.32-37.16,30.19-38.78,3.4-.27,6.94.45,10.34,1.11,3.56.69,4.18,3.45,1.54,6.09-3.6,3.61-7.29,7.14-10.9,10.74-1.55,1.54-3.81,3-4.27,4.82s1.25,4,1.63,6c.55,2.94,2.23,4.37,5.06,4.95,2.07.42,4.26,2,6,1.62s3.14-2.71,4.64-4.21c3.68-3.65,7.33-7.32,11-11,2.58-2.56,5.16-1.83,6.08,1.72a32.59,32.59,0,0,1-27.49,40.8c-3.29.39-6.68-.24-10-.25a4.12,4.12,0,0,0-2.69.87q-36.1,36-72.1,72c-1.42,1.42-2.78,2.9-4.29,4.22a3.15,3.15,0,0,0-1.09,3.37c2,10.27-.51,19.42-7.59,27.06-7.57,8.17-17.11,11.47-28.09,9.53-15.61-2.75-26.06-15.8-25.74-31.65.29-14.77,12.34-27.91,27.09-29.56,1.35-.15,2.7-.22,4.53-.36M451.92,382.2l-.49-.21c-3.84,3.84-7.71,7.64-11.5,11.53a3.73,3.73,0,0,1-4.36,1c-3.95-1.4-8-2.57-11.9-4.09A5.27,5.27,0,0,1,421,387.8c-1.52-3.9-2.73-7.93-4.08-11.9a3.89,3.89,0,0,1,1.11-4.39c3.37-3.3,6.7-6.66,10-10,.48-.48.92-1,1.74-1.92-1.18,0-1.86,0-2.54,0-19.08.58-28.21,18.66-24.57,32.17a5.18,5.18,0,0,1-1.56,5.68c-10.91,10.77-21.72,21.64-32.57,32.48q-23.4,23.38-46.79,46.79a4.33,4.33,0,0,1-4.37,1.2,34.52,34.52,0,0,0-8.95-1,24.54,24.54,0,0,0-22.87,28.85c2,12.68,14.55,22,27.12,20.45,15.47-1.87,25.68-17.15,21-31.86a3.72,3.72,0,0,1,.94-4.2q40.2-40.08,80.3-80.25a3.79,3.79,0,0,1,4-1.17c10.8,2.7,20-.23,27.31-8.45,4.55-5.1,6-11.38,5.7-18.06"/><path class="cls-1" d="M180,112.92h72.46c10.79,0,18.83,8.06,18.83,18.88q0,46.17,0,92.35a11,11,0,0,1-3.58,8.3,26.45,26.45,0,0,1-8.63,5.2A93.74,93.74,0,0,1,239,242.91c-18.1,3-36.35,4-54.67,4.14-11.47.12-22.93-.14-34.38-.91-13.06-.89-26.08-2.19-38.85-5.24A59.52,59.52,0,0,1,97.25,236,19.09,19.09,0,0,1,91,231.1a10.26,10.26,0,0,1-2.33-6.65q0-46.38,0-92.75a18.33,18.33,0,0,1,18.82-18.78H180Zm.07,5H107.94c-.61,0-1.22,0-1.83.06a13.16,13.16,0,0,0-11.48,8.39,14,14,0,0,0-1,5.75q0,45.82,0,91.65a6.45,6.45,0,0,0,2.47,5.4,22.48,22.48,0,0,0,3.44,2.31,48.48,48.48,0,0,0,11.31,4.11c11.68,3,23.61,4.32,35.58,5.24,14.11,1.08,28.24,1.43,42.39,1.14,16.27-.34,32.5-1.29,48.59-3.94a96.75,96.75,0,0,0,19.33-4.87,22,22,0,0,0,7.43-4.27,6.14,6.14,0,0,0,2.13-4.65q0-46.38,0-92.76a13.88,13.88,0,0,0-.33-3C264.47,122,259.13,118,252.15,118q-36,0-72.05,0"/><path class="cls-1" d="M180,211.89H114.75c-2.93,0-4.54-1.59-4.54-4.49q0-36.09,0-72.16c0-2.91,1.64-4.55,4.5-4.55h130.5c2.91,0,4.57,1.67,4.57,4.62v72.05c0,2.89-1.64,4.53-4.53,4.53Zm5.86-79.2H139.38c-4.39,0-8.79,0-13.19,0-.71,0-1,.19-1.16.89-.28,1.39-.66,2.76-1,4.14a100.33,100.33,0,0,0-3.13,21c-.1,5.23.38,10.37,2.65,15.16,3,6.47,7.92,10.62,15.27,11.32A33.89,33.89,0,0,0,150.38,184c5.37-1.37,10.69-2.9,16.07-4.23a35,35,0,0,1,12-1,22.24,22.24,0,0,1,14.14,7.19,53.14,53.14,0,0,0,27.3,15.67c8.78,1.93,17.67,1.66,26.54.24,1.09-.17,1.39-.52,1.39-1.64q-.06-32.27,0-64.55c0-2.31-.62-2.94-3-2.94Z"/><path class="cls-1" d="M169.46,228.63l-2-.1v-3H173a45.18,45.18,0,0,1-.47,6.49c-.55,2.66-3.27,3.93-6.39,3.33a4.53,4.53,0,0,1-4-4.35,84.81,84.81,0,0,1,0-9c.17-3,2.57-4.77,5.83-4.55,3.08.22,4.86,2.27,4.78,5.57h-3.43c0-.26-.09-.49-.12-.72a1.51,1.51,0,0,0-1.66-1.42,1.66,1.66,0,0,0-1.78,1.47,8.16,8.16,0,0,0-.05,1.31c0,2.13,0,4.26,0,6.39,0,1.4.62,2.06,1.82,2.06s1.81-.63,1.87-2c0-.44,0-.87,0-1.43"/><path class="cls-1" d="M187.12,230.13h3.38c.63,1.68,1,2,2.17,1.93a1.49,1.49,0,0,0,1.26-2.33,6,6,0,0,0-1.49-1.48c-.95-.71-2-1.3-2.91-2a5,5,0,0,1-2-3.4c-.38-3.1,1.4-5.28,4.43-5.45,3.47-.19,5.62,1.74,5.56,5.1h-3.44c-.2-.88-.5-1.73-1.71-1.68s-1.76,1-1.16,2a5.66,5.66,0,0,0,1.52,1.44c1,.72,2.07,1.3,3,2a5.23,5.23,0,0,1,2.1,4.7,4.4,4.4,0,0,1-3.43,4.26,9.41,9.41,0,0,1-3.7.07c-2.39-.46-3.67-2.4-3.58-5.14"/><path class="cls-1" d="M178.66,229.51v5.62h-3.4V217.69c2.41.14,4.82-.31,7.21.36a4.06,4.06,0,0,1,1,.48c2,1.25,3,4.15,2.21,7.07a5,5,0,0,1-4.92,3.91c-.67,0-1.34,0-2.11,0m.05-3.36c1.23,0,2.49.34,3.18-.93a3.14,3.14,0,0,0-.12-3.37c-.74-1.11-1.93-.78-3.06-.76Z"/><path class="cls-1" d="M217.33,226.46a3.82,3.82,0,0,1-3.89,3.82,3.83,3.83,0,0,1,0-7.66,3.81,3.81,0,0,1,3.86,3.84"/><path class="cls-1" d="M150.21,226.42a3.78,3.78,0,1,1-3.77-3.8,3.75,3.75,0,0,1,3.77,3.8"/><path class="cls-1" d="M233.39,144.68a8.21,8.21,0,1,1-8.12,8.13,8.14,8.14,0,0,1,8.12-8.13m-4.51,8.24a4.49,4.49,0,1,0,4.45-4.56,4.55,4.55,0,0,0-4.45,4.56"/><path class="cls-1" d="M129,154.92a8,8,0,0,1,8.21-8.09,8.19,8.19,0,1,1-8.21,8.09m8.06-4.39a4.5,4.5,0,1,0,4.52,4.5,4.5,4.5,0,0,0-4.52-4.5"/><path class="cls-1" d="M232,171.92l-1-3.51,9.24,2.82-6.18,7.11c-.4-1.19-.73-2.21-1.09-3.3l-3.12.66c-.2-1-.39-2-.59-3.1l2.77-.68"/><path class="cls-1" d="M166.49,149.5c-.2,1.17-.37,2.16-.54,3.18L160,152v-3.19l6.47.67"/><path class="cls-1" d="M198.33,170.83,193,167.22l1.81-2.63,5.2,3.51c-.54.89-1.05,1.75-1.63,2.73"/><path class="cls-1" d="M171.82,154.22c.33-1,.64-1.92,1-3l6.06,2.62c-.53,1-1,1.92-1.48,2.85l-5.59-2.45"/><path class="cls-1" d="M223.48,176.77H217c.05-1,.09-2,.13-3.12h6.12c.08.94.17,1.94.28,3.12"/><path class="cls-1" d="M189.74,160.84c-.68.94-1.27,1.75-1.9,2.6l-5.1-3.62,1.72-2.66,5.28,3.68"/><path class="cls-1" d="M211.13,172.86l-.81,3.09-6.21-2c.45-1.09.83-2,1.23-3l5.79,1.92"/><path class="cls-1" d="M147.09,149.71l6.4-.77c.09,1.12.17,2.11.26,3.15l-6.12.78-.54-3.16"/></svg>