<svg id="Layer_1" data-name="Layer 1" xmlns="http://www.w3.org/2000/svg" viewBox="0 0 360 360"><defs><style>.cls-1{fill:#fff;}</style></defs><title>icon1</title><path class="cls-1" d="M310.55,470.44c1.73.22,3.89.59,6.07.74a3.32,3.32,0,0,0,2.3-.69q30.36-30.15,60.64-60.39,8.12-8.09,16.22-16.18a2.6,2.6,0,0,0,.91-2.65c-3.57-19.87,10.32-37.16,30.19-38.78,3.4-.27,6.94.45,10.34,1.11,3.56.69,4.18,3.45,1.54,6.09-3.6,3.61-7.29,7.14-10.9,10.74-1.55,1.54-3.81,3-4.27,4.82s1.25,4,1.63,6c.55,2.94,2.23,4.37,5.06,4.95,2.07.42,4.26,2,6,1.62s3.14-2.71,4.64-4.21c3.68-3.65,7.33-7.32,11-11,2.58-2.56,5.16-1.83,6.08,1.72a32.59,32.59,0,0,1-27.49,40.8c-3.29.39-6.68-.24-10-.25a4.12,4.12,0,0,0-2.69.87q-36.1,36-72.1,72c-1.42,1.42-2.78,2.9-4.29,4.22a3.15,3.15,0,0,0-1.09,3.37c2,10.27-.51,19.42-7.59,27.06-7.57,8.17-17.11,11.47-28.09,9.53-15.61-2.75-26.06-15.8-25.74-31.65.29-14.77,12.34-27.91,27.09-29.56,1.35-.15,2.7-.22,4.53-.36M451.92,382.2l-.49-.21c-3.84,3.84-7.71,7.64-11.5,11.53a3.73,3.73,0,0,1-4.36,1c-3.95-1.4-8-2.57-11.9-4.09A5.27,5.27,0,0,1,421,387.8c-1.52-3.9-2.73-7.93-4.08-11.9a3.89,3.89,0,0,1,1.11-4.39c3.37-3.3,6.7-6.66,10-10,.48-.48.92-1,1.74-1.92-1.18,0-1.86,0-2.54,0-19.08.58-28.21,18.66-24.57,32.17a5.18,5.18,0,0,1-1.56,5.68c-10.91,10.77-21.72,21.64-32.57,32.48q-23.4,23.38-46.79,46.79a4.33,4.33,0,0,1-4.37,1.2,34.52,34.52,0,0,0-8.95-1,24.54,24.54,0,0,0-22.87,28.85c2,12.68,14.55,22,27.12,20.45,15.47-1.87,25.68-17.15,21-31.86a3.72,3.72,0,0,1,.94-4.2q40.2-40.08,80.3-80.25a3.79,3.79,0,0,1,4-1.17c10.8,2.7,20-.23,27.31-8.45,4.55-5.1,6-11.38,5.7-18.06"/><path class="cls-1" d="M269.31,231.67l-21.58-21.58q-13.14-13.15-26.29-26.3c-1.95-1.95-4-1.94-6,0-1.14,1.11-2.25,2.27-3.39,3.39l-3.81,3.76-7.73-7.74c4.07-4.07,8.06-8.11,12.11-12.09a46.29,46.29,0,0,1,5.14-4.68,22.07,22.07,0,0,1,14.78-4.06,37.67,37.67,0,0,0,25.72-7.57c13.06-9.77,18.48-27.66,13-42.69-1.21-3.28-4.15-4-6.68-1.61-.45.42-.89.86-1.33,1.3q-9.57,9.6-19.13,19.2a2.19,2.19,0,0,1-2.3.66c-3.28-.73-6.57-1.36-9.87-2a1.69,1.69,0,0,1-1.58-1.55c-.6-3.25-1.21-6.5-2-9.72a2.52,2.52,0,0,1,.84-2.68q10.17-10.11,20.28-20.26c2.42-2.42,1.68-5.54-1.57-6.69a37.9,37.9,0,0,0-49.12,26A44.86,44.86,0,0,0,197.65,128a22.05,22.05,0,0,1-6.85,17.47q-3.36,3.31-6.67,6.68c-2.43,2.45-4.84,4.91-7.26,7.37-.33-.29-.5-.41-.64-.55l-8.11-8.13,0,0L153.24,136l-.86-.81a.06.06,0,0,1,0,0L138,120.7c-1.08-1-2.16-2.08-3.27-3.09-2.91-2.67-4.39-5.25-3.06-9.19.71-2.09-.26-3.73-2.15-5L125.81,101v0l-2.42-1.61-11.07-7.36-.08-.06-2.1-1.4-2.89-1.93,0,0q-2-1.35-4-2.64c-1.68-1.08-3.39-1.06-4.7.22q-6.15,6-12.17,12.15a3.49,3.49,0,0,0-.36,4.68q8.93,13.52,17.9,27a3.63,3.63,0,0,0,3.73,1.68c1.43-.19,2.88-.35,4.29-.65a3,3,0,0,1,3,1q17.16,17.24,34.39,34.41c3.39,3.39,6.82,6.75,10.5,10.39a11,11,0,0,0-1.43,1Q136.29,200,114.22,222.08c-7.63,7.64-15.33,15.21-22.86,22.94a16.5,16.5,0,0,0-1.53,21.33c6.46,8.75,18.22,9.35,26.17,1.39q33-33.06,66.07-66.09c.38-.38.8-.73,1-.92l7.88,7.75c-2.37,2.3-4.79,4.61-7.16,7-2,2-2,4,0,6q24,24.06,48.12,48.07c7.08,7.05,17.59,7,24.7-.07q6.45-6.37,12.81-12.82c7.13-7.23,7.07-17.74-.11-24.94m-82.64-71.45c3.57-3.58,7.28-7,10.7-10.76A29.36,29.36,0,0,0,205.15,127a32.76,32.76,0,0,1,1.65-12.66,30.55,30.55,0,0,1,31.12-20.06c.51,0,1,.14,2,.28-3.52,3.48-6.75,6.65-10,9.85-2.75,2.72-5.47,5.48-8.23,8.19a4.27,4.27,0,0,0-1.31,4.21c1.11,5.36,2.17,10.72,3.23,16.09a4,4,0,0,0,3.44,3.48q6,1.17,12,2.41h0l.2,0,1.17.23a4.49,4.49,0,0,1,.83.23s4,1,6.61-1.57l2.9-2.89h0q6.59-6.54,13.14-13.11a8.35,8.35,0,0,1,1.3-1.37,22.31,22.31,0,0,1,.07,9.72,30.07,30.07,0,0,1-31.47,24.77c-7-.31-13.56.77-19.32,4.79a41,41,0,0,0-4,3.26L202.12,171l-.46.48a17.92,17.92,0,0,1-2.33,2.21l-3.16,3c-.31.3-.62.6-.89.88l-12.92-13c1.29-1.3,2.79-2.83,4.31-4.35m-18.4,44.3-3.72,3.76a1.12,1.12,0,0,1-.24.43.52.52,0,0,1-.29.11l-1.46,1.49.11.08c-.5.52-.92,1-1.46,1.53a1.36,1.36,0,0,1-.12-.12l-.89.91s0,0,0,0l-2.63,2.84-.07-.15L157,216h0l-2.67,2.81,0-.08L153,220a2.08,2.08,0,0,1-.55.57l-5.64,5.72c-.12.2-.24.42-.36.65l-.12-.16-6.64,6.74.09.08c-2.35,2.27-4.72,4.49-7,6.77q-11,11-22,22c-3.61,3.62-8,4.45-11.93,2.18a9.27,9.27,0,0,1-1.76-14.73c3.33-3.4,6.71-6.73,10.07-10.09l44.16-44.14,12.49-12.5c.32-.32.68-.6,1-.87l12.89,13-9.38,9.28m-40.39-70c-3.32-3.32-6.66-6.63-10-10A4.25,4.25,0,0,0,114,123.2a36.32,36.32,0,0,1-4,.57,2.33,2.33,0,0,1-1.75-.78c-2.35-3.43-4.79-6.82-7-10.36l-6-8.92,0-.06-1.74-2.59,7.58-7.51,20.32,13.58c.49.32,1,.65,1.47,1a1.78,1.78,0,0,1,.93,2c-.25,1.27-.42,2.54-.61,3.82a4.44,4.44,0,0,0,1.4,4q30.8,30.75,61.55,61.55l15.66,15.66A10.61,10.61,0,0,0,203,196l-7.11,6.91c-1.35-1.49-2.8-3.21-4.39-4.8q-31.78-31.86-63.59-63.66M264.31,251.13q-6.53,6.63-13.15,13.13c-4.07,4-10,3.94-14.12-.19q-11.1-11-22.13-22.11L192.36,219.4c-.29-.29-.55-.59-.78-.84l26.84-26.86c6.71,6.68,13.48,13.44,20.26,20.2l8.53,8.39v0c5.81,5.78,11.66,11.46,17.35,17.3a9.59,9.59,0,0,1-.26,13.56"/></svg>