<svg id="Layer_1" data-name="Layer 1" xmlns="http://www.w3.org/2000/svg" viewBox="0 0 360 360"><defs><style>.cls-1{fill:#fff;}</style></defs><title>icon8</title><path class="cls-1" d="M180,280.9A100.9,100.9,0,1,1,280.86,180.29,100.93,100.93,0,0,1,180,280.9m79.18-101a79.21,79.21,0,1,0-80,79.28,79.2,79.2,0,0,0,80-79.28"/><path class="cls-1" d="M180,109.87a70.13,70.13,0,1,1-70.06,70.68A70.08,70.08,0,0,1,180,109.87m51,91.81c6-9.66,6-34.06,0-43.38l-6.09,4q-9.22,6.09-18.45,12.15a1.34,1.34,0,0,0-.7,1.55,24.79,24.79,0,0,1-.16,8.88L231,201.68m-95.3-54.92c2.15,1.06,4.17,2,6.18,3l20.37,10.11a1.12,1.12,0,0,0,1.3,0c2.34-1.41,4.73-2.74,7.14-4,.5-.27.72-.47.75-1,.08-2.1.24-4.2.36-6.3q.6-10.31,1.17-20.62c.06-1,0-2,0-3.07-15.38,2.19-27.68,9.55-37.28,21.89M173,235.12a2,2,0,0,0,.06-.45q-.84-14.8-1.72-29.62a1.45,1.45,0,0,0-.69-.92c-2.25-1.27-4.57-2.41-6.76-3.77a1.73,1.73,0,0,0-2-.18q-12.65,6.31-25.31,12.57c-.28.14-.55.32-.89.52,9.59,12.28,21.85,19.67,37.3,21.85m-44.27-76.3c-5.61,8.23-5.61,34.13,0,42.34l7.46-4.79c5.75-3.7,11.49-7.42,17.25-11.1a1.45,1.45,0,0,0,.79-1.58,63.49,63.49,0,0,1,0-7.3,1.6,1.6,0,0,0-.88-1.75q-7.89-5-15.73-10.13l-8.9-5.69m58.43-34c0,.53,0,.9,0,1.26q.8,14.43,1.64,28.83a1.43,1.43,0,0,0,.71.91c2.14,1.24,4.34,2.37,6.44,3.66a1.39,1.39,0,0,0,1.59.12q11.65-5.91,23.32-11.78c1-.51,2-1.05,3.13-1.62-9.52-12-21.65-19.12-36.83-21.38m36.85,88.87-1.9-1q-12.32-6.21-24.65-12.4a1.75,1.75,0,0,0-1.38.06q-3.31,1.77-6.56,3.69a1.51,1.51,0,0,0-.71,1q-.85,14.24-1.63,28.48c0,.47,0,1,0,1.49,15.16-2.26,27.31-9.42,36.83-21.4M180,167.7A12.29,12.29,0,1,0,192.28,180,12.23,12.23,0,0,0,180,167.7"/></svg>