<svg id="Layer_1" data-name="Layer 1" xmlns="http://www.w3.org/2000/svg" viewBox="0 0 360 360"><defs><style>.cls-1{fill:#fff;}</style></defs><title>icon7</title><path class="cls-1" d="M48.06,207.94c1.72.23,3.89.6,6.07.75a3.32,3.32,0,0,0,2.3-.69q30.36-30.15,60.64-60.39c5.41-5.39,10.79-10.8,16.22-16.18a2.62,2.62,0,0,0,.91-2.66c-3.57-19.86,10.31-37.16,30.18-38.77,3.41-.28,7,.45,10.35,1.11,3.56.68,4.17,3.44,1.54,6.09-3.6,3.61-7.29,7.14-10.9,10.74-1.55,1.54-3.81,3-4.28,4.82s1.26,4,1.64,6c.55,2.94,2.22,4.36,5.06,5,2.06.42,4.26,2,6,1.61s3.13-2.71,4.64-4.2c3.67-3.65,7.33-7.32,11-11,2.58-2.57,5.16-1.83,6.08,1.72a32.59,32.59,0,0,1-27.49,40.8c-3.29.39-6.68-.24-10-.25a4.05,4.05,0,0,0-2.68.86q-36.1,36-72.11,72c-1.41,1.41-2.77,2.9-4.28,4.22a3.14,3.14,0,0,0-1.09,3.37c2,10.27-.51,19.42-7.6,27.06-7.56,8.16-17.1,11.46-28.08,9.53-15.62-2.75-26.07-15.8-25.74-31.65.29-14.77,12.34-27.92,27.09-29.56,1.35-.15,2.7-.22,4.53-.37m141.36-88.23-.48-.21c-3.84,3.83-7.71,7.64-11.5,11.53a3.74,3.74,0,0,1-4.36,1c-4-1.4-8-2.57-11.9-4.09a5.31,5.31,0,0,1-2.71-2.67c-1.52-3.91-2.74-7.93-4.08-11.9a3.9,3.9,0,0,1,1.1-4.39c3.38-3.3,6.7-6.66,10-10,.48-.48.91-1,1.73-1.91-1.17,0-1.85,0-2.53,0-19.08.58-28.22,18.66-24.57,32.17A5.18,5.18,0,0,1,138.6,135c-10.92,10.77-21.72,21.64-32.57,32.48q-23.4,23.38-46.79,46.78a4.32,4.32,0,0,1-4.38,1.2,34.82,34.82,0,0,0-8.94-1c-14.93.91-25.25,14.07-22.87,28.85,2,12.67,14.55,22,27.11,20.45,15.48-1.87,25.68-17.15,21-31.86a3.7,3.7,0,0,1,.94-4.2q40.19-40.08,80.3-80.25a3.78,3.78,0,0,1,4-1.17c10.8,2.7,20-.23,27.31-8.46,4.55-5.09,6-11.37,5.69-18"/><path class="cls-1" d="M66.1,243.67A11.63,11.63,0,0,1,64.66,246c-3.33,3.43-6.75,6.77-10.11,10.18a3.81,3.81,0,0,1-4.06,1.06C45.67,255.83,40.8,254.55,36,253a4.29,4.29,0,0,1-2.43-2.39c-1.57-4.77-2.87-9.62-4.28-14.44a4.06,4.06,0,0,1,1.18-4.39q4.8-4.65,9.46-9.46A4.62,4.62,0,0,1,45.16,221c4.31,1.36,8.68,2.52,13,3.72,1.72.47,3,1.25,3.5,3.16,1.27,4.73,2.69,9.41,4,14.11.12.43.18.89.36,1.72m-15.45,7.14A6.51,6.51,0,0,0,51.9,250c2.21-2.18,4.45-4.34,6.55-6.61A2.76,2.76,0,0,0,59,241.2c-.79-3.13-1.68-6.24-2.68-9.31a2.79,2.79,0,0,0-1.57-1.59c-3.12-1-6.28-1.91-9.46-2.74a2.37,2.37,0,0,0-1.88.39c-2.32,2.14-4.59,4.36-6.77,6.65a2.75,2.75,0,0,0-.58,2.17c.79,3.19,1.74,6.34,2.69,9.48.15.49.53,1.15.95,1.28,3.56,1.13,7.16,2.16,11,3.28"/><path class="cls-1" d="M135.43,147.31l4,3.84L75.86,214.59l-3.64-4.13c20.9-20.87,42.06-42,63.21-63.15"/><path class="cls-1" d="M184.37,173.52l-3.89,3c-2.52,1.95-4.56,2-6,.08s-.86-3.73,1.56-5.62l39.73-31.1,39.12-30.61c3.42-2.68,4.09-2.69,7.45-.06q39.18,30.69,78.38,61.35a18.59,18.59,0,0,1,1.66,1.37,3.49,3.49,0,0,1-4.36,5.44c-1.61-1.11-3.11-2.36-5.06-3.86v91.14c0,4.43-.95,5.37-5.41,5.37H189.66c-4.3,0-5.29-1-5.29-5.29V173.52Zm74.35-58.14-1.15.85q-32.49,25.44-65,50.83a3.08,3.08,0,0,0-1.13,2.87q0,45.39,0,90.77v2.16h14V220.61c-4.27-.84-6.61-3.06-6.85-6.76a58.31,58.31,0,0,1,0-7.82,7.07,7.07,0,0,1,7.25-6.75,30.81,30.81,0,0,1,3.33,0,2.36,2.36,0,0,0,2.66-1.63c3.45-7.15,6.94-14.29,10.56-21.36,2.94-5.75,7.58-8.87,14.26-8.84,14.6.08,29.21.11,43.81,0,6.92-.05,11.65,3.11,14.68,9.11s6.23,11.9,8.84,18.07c1.54,3.63,3.46,5.1,7.49,4.74s7.17,2.77,7.36,7c.12,2.4.12,4.82,0,7.23a7.06,7.06,0,0,1-6.08,6.87,5.92,5.92,0,0,0-.84.27v42.15h14V261q0-45.68,0-91.35a3.3,3.3,0,0,0-1.56-2.87q-24.28-19-48.52-37.95l-17.16-13.43m52.94,91c-2.77,0-5.31-.08-7.85,0a2.44,2.44,0,0,1-2.66-1.63q-6-12.47-12.3-24.85a9,9,0,0,0-8.6-5.34q-21.42.06-42.84,0c-4.37,0-7.28,2-9.15,5.76q-6.09,12.24-12.09,24.51a2.31,2.31,0,0,1-2.51,1.56c-2.64-.1-5.28,0-7.95,0v7.07h8.51c-.29,1.18-.59,2.09-.74,3a38,38,0,0,0-.76,5.78c-.07,12.78,0,25.56,0,38.33v2.36h10.62V249H294.1v13.88h10.57v-2.41c0-11.48,0-23,0-34.43,0-3.91.06-7.82-1.33-11.57a3.84,3.84,0,0,1,0-1.11h8.32Zm-81.15,56.53h56.27v-6.82H230.51Z"/><path class="cls-1" d="M258.66,213.42q-15.24,0-30.49,0c-4.38,0-5.78-2.14-4-6.12,3.29-7.51,6.64-15,9.86-22.54a4.56,4.56,0,0,1,4.76-3.17q19.94.1,39.88,0a4.47,4.47,0,0,1,4.67,3c3.29,7.65,6.68,15.26,10,22.89,1.63,3.73.17,5.93-4,5.93q-15.35,0-30.7,0m26.39-7.13c-2.54-5.79-4.94-11.33-7.45-16.82a2.22,2.22,0,0,0-1.71-.75c-11.48,0-22.95,0-34.43-.06a1.86,1.86,0,0,0-2,1.31c-2.14,5-4.37,10-6.56,15a12.09,12.09,0,0,0-.37,1.29Z"/><path class="cls-1" d="M219.8,231.11a10.61,10.61,0,1,1,10.51,10.62,10.68,10.68,0,0,1-10.51-10.62m10.67-3.5A3.45,3.45,0,0,0,226.9,231a3.38,3.38,0,0,0,3.4,3.67,3.48,3.48,0,0,0,3.61-3.31,3.53,3.53,0,0,0-3.44-3.7"/><path class="cls-1" d="M297.55,231.05a10.62,10.62,0,0,1-10.45,10.68,10.62,10.62,0,1,1,10.45-10.68m-14.12,0a3.49,3.49,0,0,0,3.41,3.52,3.37,3.37,0,0,0,3.62-3.44,3.44,3.44,0,0,0-3.35-3.56,3.57,3.57,0,0,0-3.68,3.48"/></svg>