<svg id="Layer_1" data-name="Layer 1" xmlns="http://www.w3.org/2000/svg" viewBox="0 0 360 360"><defs><style>.cls-1{fill:#fff;}</style></defs><title>icon6</title><path class="cls-1" d="M310.55,470.44c1.73.22,3.89.59,6.07.74a3.32,3.32,0,0,0,2.3-.69q30.36-30.15,60.64-60.39,8.12-8.09,16.22-16.18a2.6,2.6,0,0,0,.91-2.65c-3.57-19.87,10.32-37.16,30.19-38.78,3.4-.27,6.94.45,10.34,1.11,3.56.69,4.18,3.45,1.54,6.09-3.6,3.61-7.29,7.14-10.9,10.74-1.55,1.54-3.81,3-4.27,4.82s1.25,4,1.63,6c.55,2.94,2.23,4.37,5.06,4.95,2.07.42,4.26,2,6,1.62s3.14-2.71,4.64-4.21c3.68-3.65,7.33-7.32,11-11,2.58-2.56,5.16-1.83,6.08,1.72a32.59,32.59,0,0,1-27.49,40.8c-3.29.39-6.68-.24-10-.25a4.12,4.12,0,0,0-2.69.87q-36.1,36-72.1,72c-1.42,1.42-2.78,2.9-4.29,4.22a3.15,3.15,0,0,0-1.09,3.37c2,10.27-.51,19.42-7.59,27.06-7.57,8.17-17.11,11.47-28.09,9.53-15.61-2.75-26.06-15.8-25.74-31.65.29-14.77,12.34-27.91,27.09-29.56,1.35-.15,2.7-.22,4.53-.36M451.92,382.2l-.49-.21c-3.84,3.84-7.71,7.64-11.5,11.53a3.73,3.73,0,0,1-4.36,1c-3.95-1.4-8-2.57-11.9-4.09A5.27,5.27,0,0,1,421,387.8c-1.52-3.9-2.73-7.93-4.08-11.9a3.89,3.89,0,0,1,1.11-4.39c3.37-3.3,6.7-6.66,10-10,.48-.48.92-1,1.74-1.92-1.18,0-1.86,0-2.54,0-19.08.58-28.21,18.66-24.57,32.17a5.18,5.18,0,0,1-1.56,5.68c-10.91,10.77-21.72,21.64-32.57,32.48q-23.4,23.38-46.79,46.79a4.33,4.33,0,0,1-4.37,1.2,34.52,34.52,0,0,0-8.95-1,24.54,24.54,0,0,0-22.87,28.85c2,12.68,14.55,22,27.12,20.45,15.47-1.87,25.68-17.15,21-31.86a3.72,3.72,0,0,1,.94-4.2q40.2-40.08,80.3-80.25a3.79,3.79,0,0,1,4-1.17c10.8,2.7,20-.23,27.31-8.45,4.55-5.1,6-11.38,5.7-18.06"/><path class="cls-1" d="M225.14,109.29c1.27-6.76,4.55-12.18,10.43-15.83a22.71,22.71,0,0,1,14.68-3.11c9.5,1,17.71,8.86,19.23,18.8A21.8,21.8,0,0,1,265.34,126a22.62,22.62,0,0,1-14.76,8.77l-.27.64c1.91,1.76,3.86,3.49,5.72,5.31,2.87,2.82,2.84,4.91,0,7.77q-18.39,18.42-36.8,36.81c-2.42,2.43-3.78,2.67-6.79,1.17q-24.76-12.37-49.5-24.78c-3.79-1.9-4.28-5-1.29-8q25-25,50-50c2.56-2.57,4.78-2.58,7.32,0,1.88,1.9,3.66,3.9,5.5,5.86l.67-.25m9.23,48.62L202.58,126.1,172.1,156.59c2,1,4.22,2.14,6.48,3.27q17.07,8.53,34.15,17.07c.87.44,1.64,1,2.63,0,6.37-6.43,12.8-12.82,19-19m12.95-31.5a13.85,13.85,0,1,0-13.79-13.85,14,14,0,0,0,13.79,13.85M247,144.84q-16-16-31.92-32l-5.87,6,31.91,31.94,5.88-5.9"/><path class="cls-1" d="M133.08,207.63c-1-.48-1.78-.83-2.53-1.21-2.51-1.26-3.5-3.68-2.44-6s3.45-3,6-1.92c4.92,2.17,9.8,4.41,14.7,6.64,6.62,3,13.26,6,19.87,9.06,2.91,1.34,3.87,4.31,2.21,6.62a4.23,4.23,0,0,1-4.68,1.7,8,8,0,0,1-1.36-.57c-5.47-2.42-5.47-2.42-9.77,1.88-6.21,6.21-12.4,12.44-18.64,18.61A4.17,4.17,0,0,0,135,246a22.38,22.38,0,0,1-22,23.79c-11.21.26-21.08-8.54-22.55-19.62a22.46,22.46,0,0,1,24-25.27,3.5,3.5,0,0,0,2.45-.79c5.21-5.09,10.34-10.28,15.49-15.44a9,9,0,0,0,.77-1m-6.47,39.58A13.85,13.85,0,1,0,112.79,261a14,14,0,0,0,13.82-13.82m24-31.64c-2.44-1.11-4.84-2.11-7.14-3.31a2.25,2.25,0,0,0-3.11.55c-4.64,4.75-9.38,9.42-14.07,14.13-.4.41-.73.9-1.09,1.35l.74-.36,6.21,6c5.71-5.69,12-11.91,18.46-18.38"/><path class="cls-1" d="M158,172.34a18.66,18.66,0,0,1,2,.66q17.08,7.74,34.15,15.52c2.81,1.27,3.81,3.57,2.73,6s-3.55,3.12-6.29,1.88q-17.1-7.71-34.16-15.49c-2.49-1.15-3.46-2.91-3-5.21a4.57,4.57,0,0,1,4.61-3.34"/><path class="cls-1" d="M184.38,205.55c0,3.38-3.15,5.22-6.49,3.72-8.38-3.77-16.72-7.59-25.08-11.38-3.09-1.4-6.19-2.77-9.26-4.21-2.74-1.28-3.74-3.66-2.62-6.05s3.5-3,6.12-1.86q17.28,7.81,34.53,15.68a4.24,4.24,0,0,1,2.8,4.1"/></svg>