<svg id="Layer_1" data-name="Layer 1" xmlns="http://www.w3.org/2000/svg" viewBox="0 0 360 360"><defs><style>.cls-1{fill:#fff;}</style></defs><title>Icon2</title><path class="cls-1" d="M310.55,470.44c1.73.22,3.89.59,6.07.74a3.32,3.32,0,0,0,2.3-.69q30.36-30.15,60.64-60.39,8.12-8.09,16.22-16.18a2.6,2.6,0,0,0,.91-2.65c-3.57-19.87,10.32-37.16,30.19-38.78,3.4-.27,6.94.45,10.34,1.11,3.56.69,4.18,3.45,1.54,6.09-3.6,3.61-7.29,7.14-10.9,10.74-1.55,1.54-3.81,3-4.27,4.82s1.25,4,1.63,6c.55,2.94,2.23,4.37,5.06,4.95,2.07.42,4.26,2,6,1.62s3.14-2.71,4.64-4.21c3.68-3.65,7.33-7.32,11-11,2.58-2.56,5.16-1.83,6.08,1.72a32.59,32.59,0,0,1-27.49,40.8c-3.29.39-6.68-.24-10-.25a4.12,4.12,0,0,0-2.69.87q-36.1,36-72.1,72c-1.42,1.42-2.78,2.9-4.29,4.22a3.15,3.15,0,0,0-1.09,3.37c2,10.27-.51,19.42-7.59,27.06-7.57,8.17-17.11,11.47-28.09,9.53-15.61-2.75-26.06-15.8-25.74-31.65.29-14.77,12.34-27.91,27.09-29.56,1.35-.15,2.7-.22,4.53-.36M451.92,382.2l-.49-.21c-3.84,3.84-7.71,7.64-11.5,11.53a3.73,3.73,0,0,1-4.36,1c-3.95-1.4-8-2.57-11.9-4.09A5.27,5.27,0,0,1,421,387.8c-1.52-3.9-2.73-7.93-4.08-11.9a3.89,3.89,0,0,1,1.11-4.39c3.37-3.3,6.7-6.66,10-10,.48-.48.92-1,1.74-1.92-1.18,0-1.86,0-2.54,0-19.08.58-28.21,18.66-24.57,32.17a5.18,5.18,0,0,1-1.56,5.68c-10.91,10.77-21.72,21.64-32.57,32.48q-23.4,23.38-46.79,46.79a4.33,4.33,0,0,1-4.37,1.2,34.52,34.52,0,0,0-8.95-1,24.54,24.54,0,0,0-22.87,28.85c2,12.68,14.55,22,27.12,20.45,15.47-1.87,25.68-17.15,21-31.86a3.72,3.72,0,0,1,.94-4.2q40.2-40.08,80.3-80.25a3.79,3.79,0,0,1,4-1.17c10.8,2.7,20-.23,27.31-8.45,4.55-5.1,6-11.38,5.7-18.06"/><path class="cls-1" d="M269.57,128.93h-21V114H204.18v15H155.82V114H111.44v15h-21V231.07h11v15H258.59v-15h11Zm-61.86-11.44H245v11.44H207.71Zm-92.73,0h37.31v11.44H115Zm140.08,125H104.94V231.07H255.06ZM262.5,224H97.5V136h165Z"/><path class="cls-1" d="M249.64,193.65H203.09V171.2h46.55Zm-43-3.53h39.49V174.73H206.62Z"/><path class="cls-1" d="M144.86,171.2v-12H122.41v12h-12v22.45h12v12.06h22.45V193.65h12V171.2Zm8.52,18.92H141.32v12H125.94v-12h-12V174.74h12V162.69h15.38v12.05h12.06Z"/><polygon class="cls-1" points="182.57 162.15 172.3 184.91 182.57 184.91 177.43 202.55 191.94 180.29 180 180 182.57 162.15"/></svg>